<?xml version="1.0" encoding="utf-8"?>
<!-- Generator: Adobe Illustrator 18.0.0, SVG Export Plug-In . SVG Version: 6.00 Build 0)  -->
<!DOCTYPE svg PUBLIC "-//W3C//DTD SVG 1.1//EN" "http://www.w3.org/Graphics/SVG/1.1/DTD/svg11.dtd">
<svg version="1.1" id="Layer_1" xmlns="http://www.w3.org/2000/svg" xmlns:xlink="http://www.w3.org/1999/xlink" x="0px" y="0px"
	 viewBox="0 0 35 35" enable-background="new 0 0 35 35" xml:space="preserve">
<g>
	<path id="White_3_" fill="#373244" d="M31.1,2.2H3.9C3,2.2,2.2,3,2.2,3.9v27.1c0,0.9,0.8,1.7,1.7,1.7h14.6V20.9h-4v-4.6h4v-3.4
		c0-3.9,2.4-6.1,5.9-6.1C26.1,6.9,27.6,7,28,7v4.1l-2.4,0c-1.9,0-2.3,0.9-2.3,2.2v2.9h4.6l-0.6,4.6h-4v11.8h7.8
		c0.9,0,1.7-0.8,1.7-1.7V3.9C32.8,3,32,2.2,31.1,2.2z"/>
</g>
</svg>
